<svg xmlns="http://www.w3.org/2000/svg" width="706" height="740"><path fill-rule="evenodd" fill="#f39e2f" d="M218.057 72.863c-1.026 2.476 1.207 16.079 16.505 100.541 9.73 53.722 17.522 97.844 17.315 98.048-.208.205-44.632-7.635-98.721-17.422-54.09-9.786-99.16-17.58-100.158-17.319-2.881.753-3.089 4.027-.455 7.158 1.304 1.549 38.609 27.75 82.9 58.224s80.536 55.701 80.543 56.059c.008.359-35.648 25.275-79.236 55.368s-80.305 55.675-81.595 56.848-2.964 3.321-3.719 4.773c-1.308 2.513-1.23 2.702 1.597 3.873 2.619 1.085 14.538-.864 100.582-16.445 53.686-9.722 97.848-17.439 98.138-17.149s-7.411 44.364-17.113 97.942C224.938 596.941 217 641.92 217 643.316c0 2.915 2.288 3.828 5.796 2.313 1.416-.612 23.956-32.344 58.823-82.81 31.09-45.001 56.832-81.803 57.204-81.783.373.02 24.977 35.422 54.677 78.67s55.066 79.924 56.369 81.5 3.652 3.529 5.219 4.34c2.743 1.418 2.905 1.368 4.292-1.315 1.333-2.576.096-10.218-16.301-100.759-11.403-62.963-17.357-98.07-16.661-98.247.595-.151 44.612 7.611 97.816 17.25S622.052 480 623.377 480c3.415 0 4.067-2.735 1.525-6.4-1.305-1.881-33.95-25.104-83.027-59.064-62.607-43.322-80.594-56.223-79.626-57.114.688-.632 36.351-25.31 79.251-54.839 70.936-48.826 85.5-59.476 85.5-62.519 0-.557-1.237-1.641-2.75-2.409-2.511-1.274-11.24.148-100.25 16.335-53.625 9.751-97.786 17.455-98.135 17.12-.349-.336 7.358-44.648 17.127-98.471s17.544-98.697 17.277-99.717c-.607-2.324-3.612-3.344-6.032-2.049-1.012.542-27.166 37.688-58.121 82.548s-56.593 81.756-56.972 81.99-25.563-35.509-55.963-79.43C233.808 84.652 223.057 70 220.087 70c-.465 0-1.378 1.289-2.03 2.863"/></svg>