<svg xmlns="http://www.w3.org/2000/svg" viewBox="580.8 1190.4 571.2 316.8" style="max-height: 500px" width="571.2" height="316.8"><path d="M419.458 121.068c-.363.588-1.29.827-2.059.532-.77-.296-1.399-.101-1.399.431 0 .533 1.125.969 2.5.969 1.556 0 2.5-.567 2.5-1.5 0-1.76-.615-1.932-1.542-.432M.079 335.07c-.077 10.322-.015 10.626 2.671 12.984 1.513 1.329 3.134 2.294 3.604 2.146s1.918.97 3.219 2.484c1.792 2.084 3.284 2.761 6.147 2.784 2.869.024 4.003.541 4.707 2.143.51 1.161 2.196 2.961 3.747 4s2.822 2.396 2.823 3.017c.002.62.725 1.726 1.607 2.458s1.996 2.363 2.475 3.623S32.637 373 33.475 373c.858 0 1.525.874 1.525 2 0 1.1.432 2 .961 2 1.745 0 5.252 4.419 7.738 9.75 1.346 2.887 2.755 5.25 3.13 5.25 1.435 0 9.012 7.924 9.712 10.157.404 1.289 1.572 3.416 2.597 4.728S61 409.652 61 410.12c0 1.068 5.987 10.925 7.715 12.701.707.727 1.285 1.664 1.285 2.081s1.134 1.367 2.519 2.108c1.483.794 2.081 1.619 1.453 2.007-.701.433-.536 1.1.481 1.944.851.706 1.547 1.987 1.547 2.847s.978 2.605 2.174 3.878c1.358 1.444 1.687 2.314.878 2.314-.972 0-1.017.337-.183 1.342.612.738.822 1.634.465 1.991s.771 2.006 2.506 3.665c1.736 1.658 3.064 3.35 2.952 3.759-.316 1.155 3.327 7.654 4.765 8.499.708.416 1.599 2.216 1.98 4 .382 1.784 1.187 3.854 1.789 4.601 1.56 1.931 3.535 5.348 4.275 7.393.348.962.986 1.75 1.418 1.75 1.653 0 3.932 7.949 4.299 15l.182 3.5-5.5.018c-6.973.022-9.065 1.162-7.887 4.296.479 1.273 1.327 2.032 1.886 1.687s1.285.076 1.615.936c.33.859 1.227 1.563 1.993 1.563 1.344 0 1.82 2.39 1.595 8-.156 3.897-1.192 10.175-1.857 11.251-.331.535-.051 1.313.621 1.728.94.581.854 1.468-.372 3.839-.877 1.695-1.594 4.005-1.594 5.132 0 1.128-.45 2.05-1 2.05s-1 1.125-1 2.5c0 1.526-.569 2.5-1.461 2.5-.857 0-1.903 1.638-2.527 3.955-.586 2.175-1.728 4.618-2.538 5.429-1.637 1.636-1.994 3.055-.543 2.159.512-.317 1.232-.088 1.601.508.368.596-.179 1.306-1.217 1.577-1.463.383-1.93 1.528-2.087 5.119-.11 2.544-.622 5.047-1.136 5.561-.515.515-.713 1.515-.442 2.224.272.708-.438 1.583-1.578 1.945-1.139.362-2.072 1.441-2.072 2.399s-.649 2.615-1.441 3.683c-.793 1.067-1.195 2.949-.894 4.182.388 1.589.007 2.445-1.309 2.945-2.076.789-3.528 2.082-16.391 14.603-4.967 4.834-9.465 8.52-9.997 8.191-.533-.329-.971-.009-.975.711-.01 1.857-6.633 6.15-8.094 5.247-.67-.415-.949-.328-.626.195.321.519-.847 1.552-2.595 2.297s-4.128 2.21-5.288 3.255c-2.743 2.471-12.39 6.161-12.39 4.739 0-.587-.707-.36-1.571.505-.865.864-2.408 1.571-3.429 1.571s-2.477.62-3.235 1.378c-1.311 1.311-7.421 3.217-9.015 2.812-.413-.104-.75 9.975-.75 22.399v22.589l3.085-2.596c1.696-1.427 3.496-2.341 4-2.03.503.311.933-.023.956-.743.036-1.145 8.384-5.809 10.396-5.809.411 0 1.944-.914 3.405-2.03 5.089-3.888 8.346-6.487 11.431-9.122 1.707-1.459 4.819-3.218 6.915-3.91S44 645.373 44 644.998s1.793-1.219 3.984-1.875 4.457-2.078 5.035-3.158S54.87 638 55.848 638s3.071-1.35 4.652-3 3.54-3 4.354-3 1.172-.307.796-.683.639-1.24 2.255-1.919c2.947-1.239 6.144-5.398 4.15-5.398-1.515 0-.5-7.672 1.397-10.568.9-1.372 2.066-2.23 2.592-1.905s.956-.092.956-.928c0-.835 1.8-3.184 4-5.219s4-4.497 4-5.469.78-2.548 1.734-3.502 1.765-2.223 1.803-2.822c.181-2.829 1.784-6.496 3.053-6.983.776-.298 1.41-1.23 1.41-2.073 0-.842.45-1.531 1-1.531s1-.469 1-1.042.444-1.586.987-2.25c2.772-3.392 8.013-10.801 8.013-11.327 0-1.702 6.441-10.227 7.318-9.685.62.384.769-.026.379-1.044-.628-1.636 1-6.599 2.53-7.709 1.222-.888 1.479-5.856.721-13.943-.387-4.125-.36-9.975.059-13 .448-3.234.369-5.989-.192-6.686-.618-.769-.507-2 .318-3.5 1.587-2.889 1.937-4.892 1.094-6.256-.359-.581-.533-2.203-.386-3.604.163-1.552-.526-3.264-1.763-4.384-1.117-1.01-1.739-2.309-1.383-2.886 1.114-1.803 1.037-6.684-.106-6.684-.599-.001-1.149-1.82-1.222-4.043-.074-2.223-.887-4.874-1.807-5.891s-1.813-2.91-1.984-4.207c-.172-1.298-.644-3.147-1.051-4.109s-.473-2.442-.149-3.288c.336-.875-.049-1.783-.893-2.107-.816-.313-1.483-1.101-1.483-1.751s-.866-2.879-1.924-4.954c-2.191-4.299-4.081-9.416-3.78-10.237.112-.304-.542-.971-1.453-1.481-.991-.555-1.457-1.693-1.159-2.834.332-1.266-.588-2.944-2.741-5.002-1.782-1.703-2.76-3.096-2.174-3.096 1.255 0-2.697-8.134-4.519-9.3-.687-.44-1.25-2.352-1.25-4.25 0-2.4-.456-3.45-1.5-3.45-.825 0-1.5-.643-1.5-1.429 0-.785-.562-2.025-1.25-2.753-2.573-2.729-4.234-5.192-3-4.451.688.413 1.25.29 1.25-.273s-.9-1.505-2-2.094-2-1.66-2-2.38c0-.721-.9-2.125-2-3.12s-2-2.162-2-2.593-1.35-2.262-3-4.068c-1.65-1.807-3-3.752-3-4.322 0-1.342-7.922-9.517-9.222-9.517-.546 0-.738-.663-.427-1.473s-.203-2.06-1.143-2.779c-2.886-2.208-7.337-7.429-7.568-8.876-.32-2.008-3.589-6.826-7.615-11.222-6.124-6.688-10.2-10.65-10.955-10.65-.402 0-3.17-2.271-6.15-5.047s-7.32-5.931-9.641-7.012c-2.322-1.08-4.712-2.881-5.311-4.001-.728-1.36-1.702-1.842-2.933-1.451-1.373.436-2.103-.127-2.86-2.202-.807-2.212-1.033-.606-1.096 7.783m943.313 27.08c.362 11.32.755 11.56 22.108 13.494 1.65.15 6.15.598 10 .997 3.85.4 11.5.805 17 .901s12.475.694 15.5 1.33 10.393 1.383 16.373 1.659c5.979.276 11.174.689 11.543.917s3.635.672 7.257.987c7.286.632 16.543 3.298 24.606 7.086 2.903 1.364 8.978 3.67 13.5 5.125 10.624 3.418 18.972 6.544 20.171 7.554.523.44 1.699.8 2.614.8 2.119 0 12.936 10.164 12.936 12.155 0 .823 1.125 2.553 2.5 3.845s2.5 2.803 2.5 3.359c0 .555.973 3.02 2.163 5.477 1.374 2.839 2.304 7.015 2.551 11.459.213 3.845 1.319 9.682 2.457 12.97 2.315 6.69 1.854 9.82-2.773 18.837-1.299 2.531-2.124 4.839-1.834 5.128.29.29-.843 2.852-2.519 5.693-1.675 2.841-3.045 6.045-3.045 7.121s-.45 1.956-1 1.956-1 .659-1 1.465c0 .805-.9 1.946-2 2.535s-2 1.62-2 2.292c0 1.438-10.603 11.787-14.677 14.325-1.553.967-3.729 2.686-4.837 3.82-2.183 2.235-5.109 4.245-7.486 5.142-.825.311-2.175.975-3 1.476-5.575 3.385-18.13 8.983-18.976 8.46-.563-.348-1.024-.253-1.024.21 0 .464-1.35 1.641-3 2.616s-3 1.489-3 1.144-.707.079-1.571.944c-.865.864-2.442 1.571-3.505 1.571-1.064 0-4.294 1.152-7.179 2.56s-7.945 3.469-11.245 4.578-6.675 2.275-7.5 2.591c-.825.315-1.95.676-2.5.801s-4.15 1.148-8 2.273c-18.749 5.477-39.704 9.039-45.692 7.767-1.819-.386-4.883-.89-6.808-1.119a296 296 0 0 1-8-1.105c-2.475-.379-4.866-.602-5.314-.496s-2.683-.311-4.966-.925c-3.749-1.01-11.847-2.129-15.72-2.174-.825-.009-2.175-.591-3-1.293-.825-.703-3.975-2.01-7-2.906s-6.85-2.101-8.5-2.678a83 83 0 0 0-6.072-1.816c-1.689-.422-5.514-2.159-8.5-3.86-6.598-3.759-14.07-7.453-15.428-7.627-3.851-.493-8.133-2.082-9.803-3.639-1.084-1.01-4.722-3.208-8.084-4.884s-7.688-4.03-9.613-5.23-5.75-3.302-8.5-4.67c-2.75-1.369-6.64-3.762-8.644-5.319S831.92 505 831.564 505c-.357 0-1.192-.456-1.856-1.014s-3.796-2.68-6.959-4.714-5.991-4.459-6.285-5.387-1.613-1.957-2.93-2.287c-3.336-.837-5.534-3.298-5.534-6.194 0-1.62-.764-2.749-2.25-3.323-4.223-1.631-11.591-11.893-11.989-16.697-.119-1.442-.789-2.841-1.489-3.11S791 461.267 791 460.633s-1.121-2.362-2.491-3.84-2.114-2.919-1.653-3.204c3.416-2.111-2.445-20.667-9.523-30.153-8.25-11.055-26.064-17.122-32.57-11.092-1.391 1.289-2.837 3.314-3.213 4.5-.377 1.186-1.104 2.156-1.617 2.156s-.933 1.519-.933 3.375c0 2.942-.381 3.451-2.969 3.969-1.633.326-3.868 1.493-4.967 2.592-1.998 1.998-1.998 1.999.219 6.281 1.219 2.356 2.481 4.508 2.803 4.783s2.999 3.836 5.949 7.913c5.647 7.806 9.293 12.087 10.295 12.087.331 0 1.882 1.238 3.448 2.75 1.565 1.512 4.795 4.324 7.178 6.247s5.464 5.299 6.85 7.5c4.931 7.837 17.069 19.851 25.36 25.101 2.016 1.276 3.955 2.789 4.309 3.361S798.844 506 799.73 506c.887 0 2.427.737 3.423 1.638 1.447 1.31 2.104 1.393 3.28.417 2.071-1.718 4.575-.713 16.067 6.453 5.5 3.429 11.521 7.08 13.381 8.113 5.942 3.303 7.067 4.022 8.941 5.718 1.009.913 2.425 1.661 3.146 1.661s1.854.742 2.517 1.649 2.444 1.781 3.958 1.942c1.513.161 3.272 1.004 3.907 1.872s2.465 1.817 4.067 2.108c1.602.29 4.146 1.406 5.653 2.479 1.506 1.072 3.357 1.95 4.112 1.95s2.373.701 3.595 1.557c1.223.856 2.223 1.324 2.223 1.041 0-.456 7.472 2.872 12.25 5.456 7.163 3.873 14.347 6.784 18.392 7.452 2.122.351 4.758 1.023 5.858 1.495 4.098 1.755 12.917 4.273 16.4 4.682 1.98.233 4.725.813 6.1 1.289 5.109 1.769 36.368 5.537 37.929 4.572.404-.25 4.748-.722 9.653-1.048 11.139-.741 20.547-1.626 32.918-3.095 2.75-.327 6.125-.703 7.5-.836 4.232-.409 7.418-1.757 9.323-3.945 1.003-1.152 2.353-2.144 3-2.205 3.253-.305 3.677-.526 3.677-1.915 0-.825.652-1.5 1.449-1.5s2.656-1.582 4.13-3.515c1.998-2.619 3.003-3.247 3.947-2.464 1.137.944 8.79-1.973 15.474-5.898 2.294-1.346 9.5-4.373 9.5-3.99 0 .187 1.688-.704 3.75-1.978s3.757-1.944 3.765-1.487c.009.458.346.359.75-.22s2.403-1.828 4.443-2.777c2.039-.948 3.978-2.162 4.309-2.698.33-.535 1.315-.973 2.189-.973 4.329 0 24.628-17.556 32.528-28.132 3.179-4.255 8.766-14.392 8.766-15.904 0-.629 1.171-2.384 2.602-3.9 2.396-2.539 6.289-11.684 6.365-14.956.046-1.954 9.037-20.536 10.132-20.941.496-.184.901-.916.901-1.628s.601-1.793 1.336-2.403c.734-.609 2.38-3.139 3.657-5.622s2.695-4.514 3.152-4.514c.456 0 1.918-1.724 3.248-3.83 1.33-2.107 4.164-5.595 6.298-7.75s4.923-5.495 6.198-7.42 4.351-5.057 6.836-6.96c2.484-1.902 3.976-3.64 3.315-3.86-1.517-.506 3.753-6.18 5.739-6.18.773 0 2.55-.9 3.948-2s3.292-2 4.208-2 2.104-.439 2.641-.976 3.503-1.776 6.591-2.754c5.268-1.668 9.623-1.869 25.333-1.165 2.2.099 8.63-.092 14.289-.423 5.659-.332 11.38-.188 12.715.319 1.519.578 2.648.562 3.021-.042.375-.606 1.364-.554 2.662.141 1.777.951 5.053 1.432 13.063 1.918.963.059 1.75.416 1.75.794s2.588.734 5.75.79c12.47.221 28.881 1.181 31.304 1.831 3.825 1.026 8.132-3.531 7.382-7.811-.687-3.921-1.76-5.005-5.204-5.259-1.502-.11-2.732-.241-2.732-.29 0-.05-4.725-.282-10.5-.518-11.639-.474-14.112-.815-18.5-2.557-9.798-3.89-14.683-4.337-48.25-4.415-12.787-.03-23.25-.343-23.25-.696s-4.271-.51-9.492-.347c-5.454.169-9.749-.122-10.097-.684-1.061-1.717-5.683-2.973-13.404-3.643-9.911-.86-39.42-.797-60.007.128-22.279 1.001-30.485 1.036-37 .16-3.025-.407-8.2-.748-11.5-.756-5.411-.015-8.107.023-17.984.253-1.641.038-3.355.441-3.809.895-.455.455-2.712.483-5.017.063-2.304-.421-6.215-.61-8.69-.421-10.094.771-25.893.504-32-.541-3.575-.611-8.075-1.263-10-1.449-10.389-1.005-21.295-2.827-27.5-4.596-11.04-3.147-19.917-4.936-20.641-4.161-.366.392-.827 1.612-1.025 2.712-.47 2.603-4.564 2.873-5.894.388-.542-1.013-1.846-2.303-2.897-2.865-1.818-.973-1.899-.625-1.651 7.127m214.358 61.637c-.963.198-1.75 1.002-1.75 1.786 0 1.623.885 1.786 2.872.527 1.841-1.166 1.067-2.762-1.122-2.313m-192.75 580c0 .433.9.855 2 .938s2-.271 2-.787-.9-.938-2-.938-2 .354-2 .787m3.015 3.13c.009.32.396 1.184.862 1.918.652 1.029.96.896 1.347-.584.313-1.197-.01-1.918-.861-1.918-.75 0-1.356.263-1.348.584m-2.887 4.833c2.128 2.713 3.252 3.25 4.08 1.947 1.246-1.96.895-3.027-.591-1.794-1.067.885-1.517.799-1.969-.377-.322-.84-1.104-1.526-1.739-1.526-.789 0-.719.554.219 1.75m126.689 204.767c-.285.284-10.822.556-23.417.605-13.918.054-26.136.614-31.15 1.428-4.537.736-11.512 1.361-15.5 1.388-8.834.059-16.868.617-31.033 2.157-5.931.644-11.053.902-11.382.573s-1.466-.133-2.527.435-7.639 1.028-14.619 1.023c-12.141-.008-18.993.522-36.689 2.842-4.4.577-16.52 1.294-26.933 1.594s-19.351.805-19.862 1.12-1.286-.004-1.722-.71c-.623-1.007-1.732-1.046-5.139-.181-3.714.944-13.891 2.017-25.404 2.68-1.683.097-3.555.482-4.158.855s-4.852.948-9.44 1.277c-4.588.33-13.292 1.478-19.342 2.553-15.717 2.791-28.508 4.827-29.31 4.665-.379-.076-1.365.128-2.19.453-2.001.789-18.11 2.782-25 3.093-3.025.137-6.288.608-7.25 1.048-.962.439-2.47.523-3.351.185s-3.762.561-6.402 1.998c-8.333 4.535-6.745 11.028 2.964 12.123 3.616.408 22.73-2.089 29.039-3.794 1.925-.52 6.875-1.119 11-1.331 4.125-.213 8.625-.687 10-1.055s5.407-.853 8.961-1.078 8.782-.891 11.619-1.48 5.554-.967 6.039-.841 3.581-.096 6.881-.493c3.403-.41 7.444-.293 9.335.269 2.573.765 3.108.716 2.342-.214-.762-.924 1.558-1.262 9.964-1.451 13.229-.299 22.249 2.045 26.273 6.827 1.351 1.606 2.936 2.92 3.521 2.92.586 0 1.065.34 1.065.756s1.237 1.306 2.75 1.978c2.737 1.216 12.548 8.884 12.107 9.463-.127.166.543 1.484 1.49 2.929 2.468 3.767 2.574 4.813 3.245 31.917.524 21.172.388 25.07-.992 28.372-.88 2.106-1.6 5.313-1.6 7.126s-.657 4.571-1.46 6.128c-.804 1.557-2.662 5.531-4.131 8.831s-3.542 7.237-4.608 8.75-1.687 2.75-1.381 2.75c1.048 0-5.628 11.501-11.029 19-5.065 7.032-7.294 9.671-17.739 21.005-2.284 2.477-5.162 5.852-6.396 7.5-7.672 10.242-10.061 12.559-25.756 24.972-2.75 2.176-5.225 4.2-5.5 4.499s-2.3 1.439-4.5 2.534-4.225 2.249-4.5 2.565c-.92 1.059-15.094 7.932-16.349 7.928-.467-.002-2.267.654-4 1.458s-4.501 1.666-6.151 1.918c-1.65.251-3 .527-3 .613s-1.125.358-2.5.603c-1.375.246-4.435 1.35-6.8 2.454-2.364 1.104-4.746 1.731-5.293 1.393s-1.537-.182-2.201.346c-.663.528-3.979 1.437-7.367 2.02-3.389.584-7.889 1.928-10 2.988-2.112 1.059-4.371 1.736-5.021 1.504-.651-.232-1.685.518-2.3 1.666-.885 1.653-1.989 2.055-5.317 1.935-8.059-.291-12.122.078-11.151 1.015 1.9 1.832 18.675 2.896 24.95 1.582 1.65-.346 4.575-.762 6.5-.926s5.525-.591 8-.947c2.475-.357 6.075-.798 8-.979 4.38-.412 24.382-6.716 24.833-7.825.184-.452 1.62-.821 3.191-.821 1.572 0 3.124-.43 3.449-.956s1.252-.703 2.059-.393 1.468.055 1.468-.565c0-.621 1.237-1.673 2.75-2.337s2.975-1.474 3.25-1.799c1.125-1.327 19.764-12.95 20.769-12.95.597 0 1.906-1.018 2.908-2.263 2.323-2.884 10.736-9.737 11.954-9.737.508 0 1.776-1.013 2.817-2.25 6.989-8.311 13.153-15.296 13.73-15.559.372-.17 2.676-2.308 5.118-4.75s4.882-4.441 5.421-4.441c.538 0 1.791-1.8 2.783-4s2.224-4 2.738-4c1.39 0 11.743-11.222 11.186-12.124-.264-.426.433-1.264 1.548-1.861s2.028-1.689 2.028-2.428.631-1.866 1.402-2.506 1.687-2.301 2.036-3.692c.35-1.391 2.125-4.019 3.946-5.839 3.583-3.584 5.066-6.25 4.697-8.444-.129-.766.175-1.666.676-2 1.452-.967 9.187-16.812 9.815-20.106.053-.275.617-1.757 1.254-3.294s1.45-4.012 1.808-5.5c.357-1.488 1.441-4.288 2.409-6.223s2.038-5.271 2.379-7.415 1.617-5.512 2.835-7.484c1.218-1.971 2.121-3.692 2.006-3.824-.114-.131-.033-.806.182-1.5.215-.693 1.147-3.96 2.073-7.26s2.025-6.9 2.443-8c1.802-4.733 3.039-9.286 3.039-11.186 0-1.124.836-3.117 1.858-4.429 1.021-1.312 2.425-3.972 3.119-5.911.734-2.05 2.886-4.692 5.143-6.315 2.134-1.534 3.88-3.381 3.88-4.105 0-1.656 4.749-5.28 12.5-9.54 3.3-1.813 7.125-4.054 8.5-4.978 3.674-2.47 11.92-5.759 16.5-6.581 2.2-.395 4.682-1.068 5.514-1.496.833-.427 6.313-1.045 12.178-1.372s11.445-.894 12.4-1.261c1.135-.435 1.5-.283 1.053.44-.496.801.215.818 2.586.061 1.798-.574 6.194-1.441 9.769-1.926s7.175-1.162 8-1.505 9.375-.804 19-1.026c22.242-.512 36.744-1.733 40.25-3.391 2.764-1.306 3.208-2.671 2.152-6.607-.767-2.855-6.853-5.588-8.585-3.855m26.887 1.501c-1.958 1.54-2.45 2.664-2.08 4.75.741 4.168 2.709 5.479 8.802 5.866 4.484.284 5.574.055 5.574-1.172 0-.838-.675-1.784-1.5-2.1-.828-.318-1.5-1.803-1.5-3.314 0-2.931-2.677-6.048-5.194-6.048-.845 0-2.691.908-4.102 2.018m-993.059 74.67c-.378.378-5.197.814-10.709.968-5.513.153-10.362.489-10.777.746-.415.256-1.314.12-1.999-.303-.684-.423-3.144-.481-5.465-.129-2.321.353-8.152.54-12.958.416-5.505-.142-8.737.158-8.737.811 0 .57-.908.799-2.019.508-1.11-.29-4.597-.124-7.75.37-3.152.493-8.543 1.01-11.981 1.149-3.437.138-6.25.594-6.25 1.013 0 .855-7.221.58-8-.305-.275-.312-3.65-.275-7.5.082s-12.527.55-19.283.428l-12.282-.222.282 10.64c.271 10.174.382 10.654 2.533 10.96 1.238.175 2.25.79 2.25 1.366s.825.831 1.834.568c1.231-.322 2.464.464 3.75 2.389 1.054 1.578 2.704 3.121 3.666 3.43.963.309 1.763 1.094 1.778 1.744.015.651 1.335 2.466 2.933 4.033 3.378 3.313 5.307 7.103 9.238 18.15 3.939 11.068 4.078 11.826 5.392 29.265.514 6.832.307 8.914-1.196 12-1.001 2.054-1.892 4.073-1.982 4.485s-.271 1.088-.403 1.5c-.133.412-.327 1.2-.433 1.75s-.485 1.675-.843 2.5c-.359.825-.81 3.627-1.003 6.226s-.661 5.038-1.041 5.417c-.379.38-.69 1.939-.69 3.465s-.45 3.052-1 3.392-1 1.739-1 3.109-.622 3.705-1.382 5.191c-1.326 2.591-3.196 10.891-2.806 12.45.104.412-.262.75-.812.75s-1 1.35-1 3-.45 3-1 3-.921.338-.825.75c.095.412-.307 1.875-.894 3.25-.588 1.375-1.902 5.2-2.921 8.5s-2.229 6.275-2.691 6.612-.801.899-.754 1.25.051.75.008.888-.218.978-.392 1.868c-.578 2.966-4.575 6.683-6.612 6.151-2.427-.635-2.537 1.541-.169 3.339 1.602 1.216 1.608 1.331.072 1.36-1.508.029-1.689 1.963-1.777 19.011-.088 17.061.065 18.916 1.512 18.361 1.063-.408 1.234-.851.503-1.303-.734-.454-.425-1.301.916-2.516 1.113-1.007 2.024-2.436 2.024-3.176s.441-1.345.981-1.345c.539 0 1.263-1.125 1.608-2.5s1.067-2.5 1.603-2.5.788-.559.561-1.242c-.228-.683.522-1.711 1.666-2.285 1.145-.573 2.094-2.03 2.11-3.236s.578-2.744 1.25-3.416c.671-.671 1.221-2.201 1.221-3.399s.695-2.754 1.546-3.46c.85-.705 1.314-1.885 1.031-2.622s-.188-1.34.21-1.34c.973 0 3.631-5.952 3.883-8.696.111-1.208.687-3.102 1.279-4.21.593-1.107 1.006-2.369.918-2.803-.089-.435.224-2.816.693-5.291.47-2.475.742-4.894.606-5.375-.137-.481.557-1.766 1.542-2.855.986-1.089 1.751-2.27 1.701-2.625-.208-1.471.886-4.145 1.696-4.145.479 0 1.163-1.825 1.52-4.055.356-2.23 1.697-5.492 2.978-7.25 2.701-3.702 5.981-10.794 5.585-12.071-.15-.482.647-1.52 1.77-2.307s2.042-2.106 2.042-2.933c0-.826.373-1.272.828-.99.456.281 1.612-1.379 2.569-3.691 4.448-10.743 5.183-11.751 18.424-25.286 2.377-2.429 4.74-4.417 5.25-4.417.511 0 .929-.627.929-1.393s.675-1.652 1.5-1.969c.825-.316 1.5-1.216 1.5-2 0-.783.704-1.694 1.563-2.024.86-.33 1.282-1.056.937-1.614s.077-1.284.937-1.614c.859-.33 1.577-1.339 1.595-2.243.041-2.126 2.34-5.143 3.918-5.143 1.481 0 4.97-3.999 5.017-5.75.018-.687.386-1.25.817-1.25.866 0 4.778-6.154 4.502-7.081-.161-.54 1.492-2.3 7.018-7.476 1.208-1.131 3.884-2.84 5.946-3.797 2.063-.957 3.75-2.127 3.75-2.599 0-2.113 11.606-9.099 22-13.243 3.035-1.21 5.65-2.603 13.596-7.244 3.353-1.958 7.403-3.571 9-3.584s6.504-.806 10.904-1.762 10.37-1.675 13.266-1.598 5.499-.235 5.782-.694 1.25-.553 2.148-.208c1.038.398 1.386.228.957-.467-.482-.78.34-.812 2.877-.111 2.027.56 8.153.708 14.261.345 13.017-.773 9.258-.754 30.91-.16 10.01.275 18.66.784 19.222 1.132 1.621 1.001 21.253 4.556 22.139 4.008.44-.271 1.046-.096 1.346.391.301.486 2.711 1.171 5.356 1.522s5.708 1.269 6.809 2.039 2.864 1.556 3.921 1.744c1.056.189 2.648 1.018 3.538 1.843 3.068 2.844 7.404 6 8.244 6 .463 0 .574.434.247.964-.328.529.333 1.892 1.468 3.027 1.913 1.913 3.864 9.974 5.492 22.688.256 2 .889 5.027 1.407 6.728s1.225 4.781 1.571 6.843.877 3.75 1.18 3.75 1.867-.938 3.477-2.084c4.473-3.185 6.595-8.354 6.739-16.416.069-3.85.342-7.9.605-9 1.744-7.267 2.359-9.401 3.014-10.46.406-.658.917-3.299 1.134-5.868 1.026-12.13 1.381-15.036 2.438-19.962.624-2.91.8-6.06.39-7s-.788-2.16-.841-2.71c-.138-1.421-5.805-6.87-7.597-7.303-2.64-.638-4.432-.601-7.334.15-1.558.403-2.61.371-2.336-.072s-8.801-.647-20.166-.452c-23.278.398-30.381.373-44.581-.159-6.176-.231-10.744.057-12.107.764-1.397.725-6.306.999-13.582.759-6.267-.207-14.094-.366-17.394-.353-10.793.042-21.855-.134-30-.478-19.256-.812-38.652-.92-39.086-.217-.719 1.163-12.352.323-13.662-.987-1.321-1.321-2.129-1.442-3.107-.464m505.164 20.462c-1.27.358-5.347.695-9.059.75-3.767.056-6.75.542-6.75 1.1 0 .55-.622 1-1.381 1-1.786 0-5.891 5.408-8.816 11.613-1.266 2.688-2.627 5.13-3.024 5.428-1.204.904-3.592 8.5-4.284 13.626-.359 2.658-1.289 7.143-2.068 9.966-1.354 4.912-1.368 9.135-.042 12.367.338.825.798 2.85 1.022 4.5.502 3.696 3.522 13.639 4.557 15 .418.55 1.082 2.35 1.476 4s1.917 4.575 3.384 6.5c1.468 1.925 2.558 3.838 2.423 4.25-.136.412.151.75.637.75s1.884 2.464 3.106 5.475 4.199 7.598 6.616 10.193c2.417 2.596 4.394 5.05 4.394 5.454s.563 1.33 1.252 2.057c.688.726 2.431 3.121 3.872 5.321 1.442 2.2 3.804 5.261 5.249 6.802s2.627 3.228 2.627 3.75.45.948 1 .948 1 .665 1 1.478c0 1.866 10.994 13.522 12.754 13.522.72 0 1.568.675 1.884 1.5.317.825 1.1 1.5 1.741 1.5s2.819 1.363 4.84 3.029c4.471 3.686 9.709 5.971 13.684 5.971 1.632 0 4.234.492 5.782 1.094 3.255 1.266 4.216 1.455 14.315 2.821 4.125.558 12 .801 17.5.541 13.859-.657 14.593-.772 14.042-2.206-.609-1.588.691-1.617 2.258-.05.933.933 1.2.721 1.2-.955 0-1.702-.788-2.298-3.75-2.837-2.062-.375-5.801-1.48-8.309-2.455s-6.782-2.096-9.5-2.49-5.391-.986-5.941-1.314-1.45-.622-2-.654c-4.019-.232-10.631-2.137-15.378-4.43a1784 1784 0 0 0-11.622-5.551c-3.3-1.559-7.35-3.775-9-4.923s-3.291-2.089-3.647-2.089c-1.305-.004-8.854-6.633-8.88-7.799-.014-.662-1.787-3.123-3.938-5.47s-4.181-5.118-4.511-6.158-1.287-2.154-2.125-2.476c-.839-.321-1.263-1.01-.942-1.529s-.511-3.335-1.849-6.257-3.002-7.338-3.697-9.813-1.495-4.931-1.775-5.458c-.93-1.744-1.34-5.952-1.32-13.542.015-5.937.555-8.646 2.592-13 1.415-3.025 2.577-6.081 2.582-6.792.006-.71.894-2.241 1.975-3.401 1.081-1.161 1.761-2.441 1.511-2.845-.249-.405.193-1.272.984-1.929.791-.656 1.976-2.844 2.634-4.863.658-2.018 1.493-3.895 1.857-4.17 1.749-1.324 5.049-13.26 5.049-18.266 0-6.631-4.405-17.734-7.035-17.734-.898 0-1.969-.338-2.382-.75-.922-.923-5.661-.976-8.774-.1" fill-rule="evenodd"/></svg>